<?xml version="1.0" encoding="utf-8"?>
<!-- Svg Vector Icons : http://www.onlinewebfonts.com/icon -->
<!DOCTYPE svg PUBLIC "-//W3C//DTD SVG 1.1//EN" "http://www.w3.org/Graphics/SVG/1.1/DTD/svg11.dtd">
<svg version="1.1" xmlns="http://www.w3.org/2000/svg" xmlns:xlink="http://www.w3.org/1999/xlink" x="0px" y="0px" viewBox="0 0 1000 1000" enable-background="new 0 0 1000 1000" xml:space="preserve">
<metadata> Svg Vector Icons : http://www.onlinewebfonts.com/icon </metadata>
<g><g transform="translate(0.000000,511.000000) scale(0.100000,-0.100000)"><path d="M4778.2,4981.2c-71.8-14.8-175.4-48.6-230.3-76.1c-154.2-71.8-354.9-270.4-439.4-431l-69.7-137.3h-363.4h-365.5v-169v-169H2211.2H1112.6V-395.6V-4790H5000h3887.4v4394.4v4394.4H7788.7H6690.2v169v169h-363.4h-365.5l-69.7,135.2c-131,255.6-390.8,450-678.2,511.3C5044.4,5019.2,4945.1,5019.2,4778.2,4981.2z M5302.1,4603c67.6-35.9,162.7-105.6,211.3-158.5l88.7-97.2l-302.1-6.3c-164.8-2.1-435.2-2.1-602.1,0l-300,6.3l118.3,118.3c156.3,158.4,289.4,211.3,504.9,202.8C5147.9,4664.3,5204.9,4651.6,5302.1,4603z M6352.1,3829.8v-169H5000H3647.9v169v169H5000h1352.1V3829.8z M3309.8,3491.8v-169H5000h1690.2v169v169h929.6h929.6V-395.6V-4452H5000H1450.7v4056.4v4056.4h929.6h929.6V3491.8z"/><path d="M2019,2606.5c-35.9-29.6-48.6-61.3-48.6-120.4c0-69.7,40.1-141.5,257.7-466.9l257.7-386.6h-211.3c-198.6,0-217.6-4.2-264.1-52.8c-29.6-27.5-52.8-71.8-52.8-95.1c0-61.3,54.9-160.6,95.1-177.5c46.5-16.9,777.5-16.9,824,0c50.7,21.1,101.4,131,84.5,192.3c-6.3,27.5-126.8,221.8-266.2,431l-251.4,378.2h198.6c109.9,0,215.5,6.3,234.5,12.7c52.8,21.1,99.3,131,84.5,200.7c-25.4,114.1-65.5,124.6-498.6,124.6C2107.7,2646.7,2063.3,2642.5,2019,2606.5z"/><path d="M3645.8,2617.1c-312.7-84.5-492.3-319-492.3-646.5c0-281,118.3-475.4,361.3-595.8c325.4-158.5,716.2-40.1,621.1,190.1c-35.9,86.6-131,124.7-221.8,93c-160.6-59.2-285.2-14.8-380.3,128.9c-71.8,112-73.9,247.2-6.3,359.2c90.9,150,215.5,192.3,397.2,139.4c67.6-21.1,88.7-19,135.2,10.6c86.6,57.1,109.9,126.8,67.6,213.4c-27.5,59.2-54.9,78.2-143.7,103.5C3852.8,2653,3778.9,2653,3645.8,2617.1z"/><path d="M4795.1,2608.7c-219.7-78.2-407.7-293.7-454.2-519.7c-90.8-433.1,346.5-868.3,779.6-777.5c327.5,67.6,581,401.4,549.3,716.2c-23.3,221.8-190.2,450-401.4,553.5C5128.9,2648.8,4938.7,2659.4,4795.1,2608.7z M5207,2253.7c95.1-69.7,135.2-171.1,124.7-306.3c-16.9-196.5-105.6-289.4-297.9-308.5c-135.2-14.8-245.1,31.7-314.8,128.9c-35.9,52.8-46.5,95.1-46.5,207.1c0,160.6,40.1,234.5,160.6,297.9C4928.2,2323.4,5124.6,2312.9,5207,2253.7z"/><path d="M5897.9,2593.9l-52.8-50.7v-559.9c0-306.3,6.3-574.7,12.7-593.7c19-48.6,131-101.4,190.1-86.6c71.8,19,135.2,95.1,135.2,164.8v57l240.9-118.3c179.6-86.6,255.6-114.1,295.8-103.5c65.5,16.9,114.1,65.5,131,131c25.4,99.3-21.1,150-234.5,255.6c-109.9,54.9-200.7,105.6-200.7,112c0,6.3,88.7,54.9,196.5,109.9c135.2,69.7,204.9,118.3,221.8,154.2c14.8,29.6,25.4,139.4,25.4,245.1c0,198.6-29.6,297.9-95.1,323.2c-19,6.3-211.3,12.7-424.6,12.7C5952.8,2646.7,5948.6,2646.7,5897.9,2593.9z M6521.1,2277c0-16.9-71.8-67.6-169-116.2l-169-84.5v116.2v116.2h169C6487.3,2308.7,6521.1,2302.3,6521.1,2277z"/><path d="M7081,2593.9l-52.8-50.7v-572.5v-572.5l52.8-50.7c50.7-52.8,54.9-52.8,441.6-52.8c213.4,0,405.6,6.3,424.6,12.7c52.8,21.1,99.3,131,84.5,200.7c-23.2,107.7-73.9,124.6-384.5,124.6h-281v84.5v84.5h103.5c57,0,120.4,6.3,139.4,12.7c52.8,21.1,99.3,131,84.5,200.7c-19,86.6-84.5,124.6-215.5,124.6h-112v84.5v84.5h272.6c150,0,289.4,6.3,308.4,12.7c52.8,21.1,99.3,131,84.5,200.7c-25.4,114.1-63.4,124.6-502.8,124.6C7135.9,2646.7,7131.7,2646.7,7081,2593.9z"/><path d="M1957.7-1578.7v-2197.2H5000h3042.3v2197.2V618.5H5000H1957.7V-1578.7z M2971.8-226.6v-507h-338h-338v507v507.1h338h338V-226.6z M5676.1-226.6v-507H4492.9H3309.8v507v507.1h1183.1h1183.1V-226.6z M6690.2-226.6v-507h-338h-338v507v507.1h338h338V-226.6z M7704.2-226.6v-507h-338h-338v507v507.1h338h338V-226.6z M2971.8-1578.7v-507.1h-338h-338v507.1v507.1h338h338V-1578.7z M5676.1-1578.7v-507.1H4492.9H3309.8v507.1v507.1h1183.1h1183.1V-1578.7z M6690.2-1578.7v-507.1h-338h-338v507.1v507.1h338h338V-1578.7z M7704.2-1578.7v-507.1h-338h-338v507.1v507.1h338h338V-1578.7z M2971.8-2930.8v-507.1h-338h-338v507.1v507h338h338V-2930.8z M5676.1-2930.8v-507.1H4492.9H3309.8v507.1v507h1183.1h1183.1V-2930.8z M6690.2-2930.8v-507.1h-338h-338v507.1v507h338h338V-2930.8z M7704.2-2930.8v-507.1h-338h-338v507.1v507h338h338V-2930.8z"/></g></g>
</svg>